<?xml version="1.0" encoding="UTF-8" standalone="no"?><!DOCTYPE svg PUBLIC "-//W3C//DTD SVG 1.1//EN" "http://www.w3.org/Graphics/SVG/1.1/DTD/svg11.dtd"><svg width="100%" height="100%" viewBox="0 0 1000 1000" version="1.1" xmlns="http://www.w3.org/2000/svg" xmlns:xlink="http://www.w3.org/1999/xlink" xml:space="preserve" xmlns:serif="http://www.serif.com/" style="fill-rule:evenodd;clip-rule:evenodd;stroke-linejoin:round;stroke-miterlimit:2;"><path d="M570.5,880c10.636,8.97 22.387,16.66 35.013,22.831c8.3,16.128 25.114,27.169 44.487,27.169c11.247,0 21.632,-3.722 29.989,-10l0.011,0c23.571,0 46.028,-4.807 66.443,-13.495c-11.627,42.345 -50.426,73.495 -96.443,73.495c-55.192,0 -100,-44.808 -100,-100l20.5,0Zm-170.498,-0.646c0.348,-54.895 45.022,-99.354 99.998,-99.354c4.333,0 8.602,0.276 12.791,0.812c7.248,39.525 28.186,74.289 57.709,99.188l-20.5,0c0,-27.596 -22.404,-50 -50,-50c-27.488,0 -49.825,22.23 -49.999,49.677l-0.001,0.323l-50,0l50,0l-0.002,0.646c-0.348,54.895 -45.022,99.354 -99.998,99.354c-55.192,0 -100,-44.808 -100,-100l-0.001,-0.323c-0.174,-27.447 -22.511,-49.677 -49.999,-49.677c-27.596,0 -50,22.404 -50,50l-50,0c0,-55.192 44.808,-100 100,-100c54.976,0 99.65,44.459 99.998,99.354l0.003,0.969c0.174,27.447 22.511,49.677 49.999,49.677c27.596,0 50,-22.404 50,-50l0.002,-0.646Zm445.079,-88.625c32.571,16.495 54.919,50.294 54.919,89.271l-50,0c0,-18.114 -9.653,-33.991 -24.091,-42.763c8.561,-14.279 15.086,-29.916 19.172,-46.508Z" style="fill:#f00;"/><path d="M400.002,699.354c0.348,-54.895 45.022,-99.354 99.998,-99.354c25.023,0 47.912,9.211 65.458,24.424c-12.345,11.269 -23.025,24.331 -31.626,38.773c-8.906,-8.192 -20.789,-13.197 -33.832,-13.197c-27.488,0 -49.825,22.23 -49.999,49.677l-0.001,0.323l-50,0l50,0l-0.002,0.646c-0.348,54.895 -45.022,99.354 -99.998,99.354c-55.192,0 -100,-44.808 -100,-100l-0.001,-0.323c-0.174,-27.447 -22.511,-49.677 -49.999,-49.677c-27.596,0 -50,22.404 -50,50l-50,0c0,-55.192 44.808,-100 100,-100c54.976,0 99.65,44.459 99.998,99.354l0.003,0.969c0.174,27.447 22.511,49.677 49.999,49.677c27.596,0 50,-22.404 50,-50l0.002,-0.646Zm368.726,-94.358c9.84,-3.242 20.353,-4.996 31.272,-4.996c55.192,0 100,44.808 100,100l-50,0c0,-20.265 -12.082,-37.73 -29.429,-45.579c-13.572,-19.913 -31.263,-36.798 -51.843,-49.425Z" style="fill:#f00;"/><circle cx="680" cy="750" r="110" style="fill:#f00;"/><g id="Thermometer-Stick" serif:id="Thermometer Stick"><path d="M710,115c0,-8.279 -6.721,-15 -15,-15l-30,0c-8.279,0 -15,6.721 -15,15l0,655c0,8.279 6.721,15 15,15l30,0c8.279,0 15,-6.721 15,-15l0,-655Z" style="fill:#f00;"/><path d="M570.761,556.957c-5.939,0 -10.761,4.821 -10.761,10.76l0,21.522c0,5.939 4.822,10.761 10.761,10.761l128.478,0c5.939,0 10.761,-4.822 10.761,-10.761l0,-21.522c0,-5.939 -4.822,-10.76 -10.761,-10.76l-128.478,0Z" style="fill:#f00;"/><path d="M610.761,456.957c-5.939,0 -10.761,4.821 -10.761,10.76l0,21.522c0,5.939 4.822,10.761 10.761,10.761l88.478,0c5.939,0 10.761,-4.822 10.761,-10.761l0,-21.522c0,-5.939 -4.822,-10.76 -10.761,-10.76l-88.478,0Z" style="fill:#f00;"/><path d="M570.761,356.957c-5.939,0 -10.761,4.821 -10.761,10.76l0,21.522c0,5.939 4.822,10.761 10.761,10.761l128.478,0c5.939,0 10.761,-4.822 10.761,-10.761l0,-21.522c0,-5.939 -4.822,-10.76 -10.761,-10.76l-128.478,0Z" style="fill:#f00;"/><path d="M570.761,156.957c-5.939,0 -10.761,4.821 -10.761,10.76l0,21.522c0,5.939 4.822,10.761 10.761,10.761l128.478,0c5.939,0 10.761,-4.822 10.761,-10.761l0,-21.522c0,-5.939 -4.822,-10.76 -10.761,-10.76l-128.478,0Z" style="fill:#f00;"/><path d="M610.761,256.957c-5.939,0 -10.761,4.821 -10.761,10.76l0,21.522c0,5.939 4.822,10.761 10.761,10.761l88.478,0c5.939,0 10.761,-4.822 10.761,-10.761l0,-21.522c0,-5.939 -4.822,-10.76 -10.761,-10.76l-88.478,0Z" style="fill:#f00;"/></g><g id="Exclamation-Mark" serif:id="Exclamation Mark"><path d="M286.83,97.42c-0.366,-4.485 1.161,-8.919 4.212,-12.228c3.05,-3.31 7.345,-5.192 11.846,-5.192c24.694,0 69.53,0 94.224,0c4.501,0 8.796,1.882 11.846,5.192c3.051,3.309 4.578,7.743 4.212,12.228c-5.406,66.31 -24.645,302.316 -29.668,363.932c-0.682,8.362 -7.668,14.802 -16.058,14.802c-10.466,0 -24.422,0 -34.888,0c-8.39,0 -15.376,-6.44 -16.058,-14.802c-5.023,-61.616 -24.262,-297.622 -29.668,-363.932Z" style="fill:#f00;"/><circle cx="350" cy="549.725" r="45.275" style="fill:#f00;"/></g></svg>