<?xml version="1.0" encoding="UTF-8" standalone="no"?>
<svg
   xmlns:dc="http://purl.org/dc/elements/1.1/"
   xmlns:cc="http://creativecommons.org/ns#"
   xmlns:rdf="http://www.w3.org/1999/02/22-rdf-syntax-ns#"
   xmlns:svg="http://www.w3.org/2000/svg"
   xmlns="http://www.w3.org/2000/svg"
   xmlns:sodipodi="http://sodipodi.sourceforge.net/DTD/sodipodi-0.dtd"
   xmlns:inkscape="http://www.inkscape.org/namespaces/inkscape"
   width="210mm"
   height="297mm"
   viewBox="0 0 210 297"
   version="1.1"
   id="svg8"
   inkscape:version="1.0.1 (c497b03c, 2020-09-10)"
   sodipodi:docname="TackySun.svg">
  <defs
     id="defs2" />
  <sodipodi:namedview
     id="base"
     pagecolor="#ffffff"
     bordercolor="#666666"
     borderopacity="1.0"
     inkscape:pageopacity="0.0"
     inkscape:pageshadow="2"
     inkscape:zoom="0.61574708"
     inkscape:cx="378.43926"
     inkscape:cy="474.93038"
     inkscape:document-units="mm"
     inkscape:current-layer="layer1"
     inkscape:document-rotation="0"
     showgrid="false"
     inkscape:window-width="1440"
     inkscape:window-height="900"
     inkscape:window-x="0"
     inkscape:window-y="0"
     inkscape:window-maximized="0" />
  <metadata
     id="metadata5">
    <rdf:RDF>
      <cc:Work
         rdf:about="">
        <dc:format>image/svg+xml</dc:format>
        <dc:type
           rdf:resource="http://purl.org/dc/dcmitype/StillImage" />
        <dc:title></dc:title>
      </cc:Work>
    </rdf:RDF>
  </metadata>
  <g
     inkscape:label="Layer 1"
     inkscape:groupmode="layer"
     id="layer1">
    <ellipse
       style="fill:#ffe680;stroke:#ffffff;stroke-width:0.48299"
       id="path14"
       ry="22.898474"
       rx="22.758759"
       cy="106.16926"
       cx="97.304314" />
    <path
       id="path18"
       style="fill:#ffe680;stroke:#ffffff;stroke-width:0.646755"
       inkscape:transform-center-x="-6.428536"
       inkscape:transform-center-y="0.27704535"
       d="m 142.96539,110.24905 c 2.99164,-0.30087 5.19276,-1.05706 6.74951,-1.78569 3.98566,-1.86395 6.84299,-3.83797 11.22045,-5.6615 -1.04202,-0.16033 -2.38993,0.11519 -3.56657,0.18228 -3.14991,0.31402 -6.49112,0.73139 -9.59456,0.61178 -4.2219,-0.24776 -7.17549,-1.04603 -10.06863,-1.78209 -4.09394,-1.0642 -8.05004,-2.227129 -13.58699,-2.816179 -0.89964,-0.0714 -1.72286,-0.23814 -2.77055,-0.19307 -0.8376,0.15253 -0.42703,0.4088 -0.48569,0.59969 -0.0321,3.722679 -0.002,7.443099 0.59902,11.125549 -0.15781,0.18857 0.90624,0.13646 1.15352,-0.006 3.48854,-0.66371 7.67681,-0.76405 11.12651,-0.56333 2.98584,0.15272 5.82628,0.54497 9.22398,0.28885 z" />
    <path
       id="path18-0"
       style="fill:#ffe680;stroke:#ffffff;stroke-width:0.646755"
       inkscape:transform-center-x="-0.016367626"
       inkscape:transform-center-y="-6.4722496"
       d="m 103.36575,60.993991 c -0.20235,-2.98803 -0.88791,-5.2043 -1.56726,-6.77821 -1.73774,-4.02954 -3.623509,-6.93958 -5.307661,-11.3578 -0.195566,1.03195 0.03607,2.38289 0.06422,3.55642 0.210274,3.14601 0.517894,6.4859 0.294595,9.57124 -0.389127,4.19444 -1.288448,7.10803 -2.123337,9.9635 -1.204122,4.03989 -2.502738,7.93929 -3.278091,13.43144 -0.101562,0.89316 -0.296298,1.70709 -0.285936,2.75151 0.125177,0.83887 0.396001,0.4387 0.585604,0.50344 3.734485,0.15581 7.468781,0.24943 11.183966,-0.22604 0.18397,0.16337 0.16709,-0.89758 0.0321,-1.14849 -0.5499,-3.49474 -0.51121,-7.66729 -0.195,-11.09461 0.25262,-2.96718 0.74076,-5.78162 0.59683,-9.1724 z" />
    <path
       id="path18-0-1"
       style="fill:#ffe680;stroke:#ffffff;stroke-width:0.646755"
       inkscape:transform-center-x="6.4152154"
       inkscape:transform-center-y="-0.32482748"
       d="m 51.563835,100.03488 c -2.990461,0.31214 -5.188695,1.07664 -6.742662,1.81113 -3.978548,1.87895 -6.828367,3.86374 -11.198863,5.70374 1.042627,0.15641 2.389474,-0.12421 3.565864,-0.19572 3.148681,-0.32588 6.488284,-0.75585 9.592159,-0.64794 4.222807,0.23185 7.179421,1.01898 10.075329,1.74413 4.097949,1.04875 8.058444,2.19677 13.597599,2.76494 0.899898,0.068 1.723752,0.23164 2.77126,0.18262 0.837019,-0.15568 0.42548,-0.4104 0.48341,-0.60152 0.0179,-3.72276 -0.02653,-7.44304 -0.641291,-11.123199 0.157099,-0.18917 -0.906761,-0.13304 -1.153497,0.0106 -3.485991,0.676839 -7.673846,0.792979 -11.124282,0.605269 -2.986401,-0.14147 -5.828309,-0.523009 -9.225026,-0.25409 z" />
    <path
       id="path18-0-5"
       style="fill:#ffe680;stroke:#ffffff;stroke-width:0.646755"
       inkscape:transform-center-x="-0.006823017"
       inkscape:transform-center-y="6.4761532"
       d="m 91.710947,151.36848 c 0.177748,2.98959 0.845041,5.21137 1.511407,6.79078 1.704526,4.0436 3.56628,6.96893 5.214008,11.40076 0.204052,-1.03033 -0.01644,-2.38311 -0.03494,-3.55682 -0.184373,-3.14763 -0.464492,-6.48993 -0.215805,-9.57334 0.423637,-4.19112 1.346907,-7.09726 2.205273,-9.94582 1.23733,-4.02992 2.568,-7.91859 3.38853,-13.40422 0.10891,-0.8923 0.31034,-1.70462 0.30857,-2.74908 -0.11827,-0.83987 -0.39237,-0.44192 -0.58144,-0.50821 -3.733076,-0.18629 -7.466477,-0.31041 -11.185451,0.13471 -0.182621,-0.16486 -0.17447,0.8962 -0.04151,1.1482 0.521123,3.49911 0.448086,7.6712 0.10367,11.09583 -0.27703,2.96501 -0.788308,5.77538 -0.672297,9.16721 z" />
    <path
       id="path18-0-8"
       style="fill:#ffe680;stroke:#ffffff;stroke-width:0.646755"
       inkscape:transform-center-x="-2.9592727"
       inkscape:transform-center-y="-2.2966516"
       d="m 135.27816,81.031901 c 2.19316,-2.04875 3.48066,-3.98103 4.27306,-5.50159 2.02968,-3.89182 3.09586,-7.18853 5.46144,-11.28525 -0.92558,0.50298 -1.82837,1.53726 -2.72223,2.30234 -2.31088,2.15494 -4.7107,4.50772 -7.2491,6.29007 -3.50507,2.35714 -6.33826,3.5097 -9.08549,4.6751 -3.90128,1.63113 -7.75327,3.10044 -12.51116,5.98197 -0.75822,0.48751 -1.51391,0.85303 -2.31873,1.52262 -0.57241,0.62786 -0.09,0.58308 -0.0202,0.77022 2.24461,2.97678 4.53742,5.91403 7.26023,8.47605 -0.0104,0.24527 0.80316,-0.43981 0.91256,-0.70281 2.36666,-2.63758 5.63273,-5.25092 8.49566,-7.1783 2.46516,-1.68491 4.96086,-3.09156 7.50392,-5.35041 z" />
    <path
       id="path18-0-89"
       style="fill:#ffe680;stroke:#ffffff;stroke-width:0.646755"
       inkscape:transform-center-x="2.7078889"
       inkscape:transform-center-y="-2.5370907"
       d="m 70.343497,69.286671 c -2.185439,-2.05692 -4.199554,-3.22046 -5.771217,-3.91659 -4.022692,-1.78328 -7.390896,-2.64454 -11.639182,-4.74942 0.559875,0.88988 1.650848,1.72507 2.471485,2.56762 2.298953,2.16755 4.801547,4.41161 6.740822,6.8278 2.573578,3.34262 3.899453,6.08988 5.23301,8.75089 1.869873,3.78028 3.574602,7.52132 6.749247,12.07787 0.534287,0.72442 0.946158,1.45368 1.665725,2.21347 0.663743,0.53124 0.589787,0.0543 0.773124,-0.0264 2.847992,-2.41101 5.653465,-4.86755 8.056961,-7.72898 0.246433,-0.004 -0.48919,-0.77199 -0.759356,-0.8649 -2.78603,-2.19393 -5.601966,-5.2835 -7.706145,-8.0136 -1.837199,-2.34927 -3.39738,-4.74568 -5.814469,-7.1378 z" />
    <path
       id="path18-0-2"
       style="fill:#ffe680;stroke:#ffffff;stroke-width:0.646755"
       inkscape:transform-center-x="-3.4110969"
       inkscape:transform-center-y="1.7687787"
       d="m 127.89408,140.46532 c 2.398,1.80677 4.52769,2.74417 6.16631,3.2651 4.19423,1.33485 7.63675,1.82442 12.09051,3.45439 -0.65415,-0.82363 -1.83021,-1.5351 -2.73836,-2.2833 -2.52297,-1.90439 -5.25675,-3.86268 -7.44946,-6.05338 -2.92486,-3.04254 -4.54415,-5.62906 -6.16164,-8.12902 -2.27337,-3.55417 -4.37827,-7.08729 -8.03376,-11.27109 -0.61056,-0.66196 -1.09996,-1.34202 -1.89857,-2.01896 -0.71804,-0.45582 -0.59221,0.0102 -0.7656,0.11037 -2.56646,2.7065 -5.08566,5.45364 -7.16087,8.5595 -0.24447,0.0312 0.57095,0.71412 0.84969,0.77707 3.01001,1.8776 6.14801,4.64223 8.53909,7.12701 2.08391,2.13528 3.89762,4.34756 6.56266,6.46232 z" />
    <path
       id="path18-0-0"
       style="fill:#ffe680;stroke:#ffffff;stroke-width:0.646755"
       inkscape:transform-center-x="2.7679086"
       inkscape:transform-center-y="2.4850468"
       d="m 59.263598,131.50494 c -2.134278,2.10955 -3.366547,4.07722 -4.115579,5.61944 -1.918668,3.94729 -2.891077,7.27263 -5.139716,11.43418 0.910976,-0.52878 1.784116,-1.58802 2.655954,-2.37791 2.248939,-2.21899 4.581195,-4.63824 7.068106,-6.49119 3.436934,-2.45464 6.236364,-3.68634 8.949504,-4.92845 3.853533,-1.74006 7.662388,-3.31699 12.336801,-6.33102 0.744111,-0.50862 1.489146,-0.89521 2.274691,-1.58714 0.554403,-0.6437 0.07341,-0.58538 -0.0017,-0.77048 -2.328014,-2.91255 -4.703078,-5.78422 -7.497357,-8.26874 0.0035,-0.24547 -0.790387,0.4622 -0.892298,0.72816 -2.291027,2.70301 -5.481806,5.40705 -8.289022,7.41409 -2.416469,1.75348 -4.87135,3.22968 -7.349427,5.55906 z" />
  </g>
</svg>
