<?xml version="1.0" encoding="UTF-8" standalone="no"?>
<svg
   xmlns:dc="http://purl.org/dc/elements/1.1/"
   xmlns:cc="http://creativecommons.org/ns#"
   xmlns:rdf="http://www.w3.org/1999/02/22-rdf-syntax-ns#"
   xmlns:svg="http://www.w3.org/2000/svg"
   xmlns="http://www.w3.org/2000/svg"
   xmlns:sodipodi="http://sodipodi.sourceforge.net/DTD/sodipodi-0.dtd"
   xmlns:inkscape="http://www.inkscape.org/namespaces/inkscape"
   width="210mm"
   height="297mm"
   viewBox="0 0 210 297"
   version="1.1"
   id="svg8"
   inkscape:version="1.0.1 (3bc2e813f5, 2020-09-07)"
   sodipodi:docname="SeatrCooler.svg">
  <defs
     id="defs2">
    <rect
       x="93.817116"
       y="186.52007"
       width="55.184532"
       height="30.994049"
       id="rect168" />
    <rect
       x="38.632591"
       y="186.52007"
       width="55.184525"
       height="30.994049"
       id="rect162" />
  </defs>
  <sodipodi:namedview
     id="base"
     pagecolor="#ffffff"
     bordercolor="#666666"
     borderopacity="1.0"
     inkscape:pageopacity="0.0"
     inkscape:pageshadow="2"
     inkscape:zoom="0.35"
     inkscape:cx="310"
     inkscape:cy="585.71429"
     inkscape:document-units="mm"
     inkscape:current-layer="layer1"
     inkscape:document-rotation="0"
     showgrid="false"
     inkscape:window-width="1920"
     inkscape:window-height="1017"
     inkscape:window-x="3832"
     inkscape:window-y="-8"
     inkscape:window-maximized="1" />
  <metadata
     id="metadata5">
    <rdf:RDF>
      <cc:Work
         rdf:about="">
        <dc:format>image/svg+xml</dc:format>
        <dc:type
           rdf:resource="http://purl.org/dc/dcmitype/StillImage" />
        <dc:title />
      </cc:Work>
    </rdf:RDF>
  </metadata>
  <g
     inkscape:label="Layer 1"
     inkscape:groupmode="layer"
     id="layer1">
    <rect
       style="fill:#333333;stroke-width:0.264583"
       id="rect50"
       width="100.54168"
       height="31.75001"
       x="-158.95461"
       y="-155.95331"
       ry="14.288177"
       transform="rotate(-178.08554)"
       rx="11.962216" />
    <rect
       style="fill:#333333;stroke-width:0.255749"
       id="rect52"
       width="96.834015"
       height="30.602554"
       x="-7.376318"
       y="186.16022"
       ry="11.016926"
       transform="matrix(0.2544421,-0.96708801,0.70026731,0.71388072,0,0)"
       rx="17.351982" />
    <path
       style="fill:#0000ff;stroke-width:0.152635"
       id="path88"
       d="m 76.062144,60.89894 c -0.254002,2.117535 -0.535937,4.164302 -0.983594,5.825302 -0.08016,0.268419 -0.156094,0.554646 -0.240484,0.80529 -0.222879,0.661978 -0.464894,1.214582 -0.668456,1.968059 -0.669326,2.47752 0.295572,-0.874514 -0.337608,1.297908 -0.325478,1.545478 -0.705971,2.945999 -0.983491,4.611086 -0.05211,0.248318 -0.113688,0.473728 -0.156325,0.744988 -0.165333,1.051799 -0.223284,2.339324 -0.32081,3.482921 -0.472576,5.5414 0.226722,-2.804165 -0.239098,2.774861 -0.164958,2.277726 -0.38996,4.490598 -0.564672,6.756629 -0.145357,2.709376 -0.179116,5.473938 -0.208031,8.225775 -0.03082,2.058644 -0.03426,4.082521 0.05802,6.115171 0.195689,2.04638 0.44778,4.0218 0.795432,5.783 0.360945,1.41936 0.676924,2.9622 0.998366,4.49715 0.385569,1.62128 0.76368,3.26053 1.139959,4.91025 0.425228,1.80755 0.815977,3.66301 1.124387,5.76777 0.277148,2.25686 0.559938,4.50288 0.847276,6.74362 0.178292,1.71106 0.294042,3.52015 0.386618,5.31968 0.08835,1.96848 0.106535,3.96433 0.11635,5.95465 -0.01375,1.59081 0.08156,3.2394 -0.117639,4.70693 -0.202921,1.86563 -0.398488,3.78435 -0.659887,5.553 -0.228056,1.75114 -0.533463,3.32583 -0.807863,4.98054 -0.317915,1.64611 -0.576143,3.45508 -0.924152,5.01856 -0.300702,1.66165 -0.671588,3.11314 -1.080126,4.42337 -0.36761,1.3618 -0.77015,2.59562 -1.117915,4.03289 -0.43787,1.70351 -0.938652,3.16743 -1.352357,4.96487 -0.210403,1.54958 -0.558772,2.712 -0.854154,4.02944 -0.255885,1.15531 -0.604146,1.85053 -0.896892,2.85319 -0.216186,0.52234 -0.115679,0.22339 -0.300988,0.89923 0,0 3.142822,-4.65872 3.142822,-4.65872 v 0 c 0.20188,-0.56738 0.101078,-0.27121 0.302057,-0.89008 0.314459,-0.91681 0.618933,-1.84726 0.869492,-3.01337 0.30944,-1.27131 0.579654,-2.63659 0.855974,-3.99995 0.438291,-1.67298 0.909571,-3.21695 1.341585,-4.91059 0.375376,-1.34833 0.761557,-2.65643 1.141985,-3.98554 0.391086,-1.40579 0.731751,-2.9757 1.046669,-4.61422 0.315419,-1.68192 0.618007,-3.39465 0.912306,-5.12671 0.27835,-1.67228 0.589446,-3.27983 0.79939,-5.09112 0.226411,-1.88843 0.466837,-3.75951 0.652903,-5.70713 0.10591,-1.67039 0.05916,-3.38297 0.05671,-5.08602 -0.01827,-2.04741 -0.05089,-4.09705 -0.147781,-6.1183 -0.09882,-1.9011 -0.215673,-3.82279 -0.426006,-5.60388 -0.298778,-2.23852 -0.598576,-4.47196 -0.871463,-6.75442 -0.316857,-2.18496 -0.696076,-4.17671 -1.152193,-6.00596 -0.377156,-1.62433 -0.73138,-3.31497 -1.120142,-4.90397 -0.328702,-1.495 -0.628961,-3.07289 -0.995485,-4.45688 -0.322344,-1.58152 -0.564515,-3.368959 -0.715735,-5.263094 -0.07014,-1.956779 -0.06308,-3.915601 -0.04422,-5.887364 0.02541,-2.671434 0.059,-5.373119 0.254686,-7.964166 0.192042,-2.228886 0.373861,-4.4696 0.5496,-6.716195 0.199516,-2.31929 0.35744,-4.758818 0.77791,-6.702672 0.320094,-1.521541 0.648268,-3.028263 1.016081,-4.401889 0.387368,-1.459362 0.846412,-2.618093 1.219492,-4.129068 0.408049,-1.908305 0.71686,-4.086058 0.94542,-6.355644 0,0 -3.06392,5.300822 -3.06392,5.300822 z" />
    <path
       style="fill:#0000ff;stroke-width:0.152635"
       id="path88-2"
       d="m 129.42443,65.699056 c -0.25402,2.117534 -0.53595,4.164301 -0.98361,5.825301 -0.0802,0.268419 -0.15609,0.554647 -0.24048,0.805291 -0.22288,0.661978 -0.4649,1.214581 -0.66846,1.968059 -0.66932,2.47752 0.29557,-0.874514 -0.33761,1.297907 -0.32547,1.545479 -0.70597,2.946 -0.98349,4.611086 -0.0521,0.248318 -0.11369,0.473729 -0.15632,0.744989 -0.16534,1.051798 -0.22329,2.339323 -0.32081,3.482921 -0.47258,5.541399 0.22672,-2.804165 -0.2391,2.774861 -0.16496,2.277726 -0.38996,4.490598 -0.56467,6.756629 -0.14536,2.709376 -0.17912,5.473937 -0.20803,8.22577 -0.0308,2.05865 -0.0343,4.08252 0.058,6.11517 0.19569,2.04639 0.44778,4.0218 0.79543,5.78301 0.36094,1.41936 0.67692,2.96219 0.99836,4.49714 0.38557,1.62128 0.76368,3.26054 1.13996,4.91026 0.42523,1.80756 0.81598,3.66301 1.12439,5.76777 0.27715,2.25686 0.55995,4.50287 0.84729,6.74362 0.17829,1.71105 0.29404,3.52015 0.38661,5.31968 0.0883,1.96847 0.10654,3.96432 0.11635,5.95464 -0.0138,1.59081 0.0816,3.2394 -0.11763,4.70696 -0.20293,1.86561 -0.39849,3.78434 -0.65989,5.55299 -0.22807,1.75112 -0.53347,3.32582 -0.80787,4.98052 -0.31792,1.64612 -0.57615,3.45508 -0.92416,5.01857 -0.3007,1.66165 -0.67158,3.11313 -1.08012,4.42337 -0.36761,1.36181 -0.77015,2.59563 -1.11792,4.0329 -0.43787,1.70349 -0.93865,3.16742 -1.35235,4.96486 -0.21041,1.54958 -0.55878,2.712 -0.85416,4.02944 -0.25588,1.15531 -0.60414,1.85054 -0.89689,2.85319 -0.21619,0.52233 -0.11568,0.22338 -0.30099,0.89923 0,0 3.14282,-4.65871 3.14282,-4.65871 v 0 c 0.20188,-0.56737 0.10108,-0.27123 0.30206,-0.8901 0.31446,-0.91681 0.61893,-1.84725 0.86949,-3.01336 0.30944,-1.2713 0.57966,-2.6366 0.85598,-3.99994 0.43829,-1.673 0.90957,-3.21696 1.34158,-4.91059 0.37538,-1.34834 0.76156,-2.65645 1.142,-3.98554 0.39108,-1.4058 0.73175,-2.97572 1.04667,-4.61422 0.31541,-1.68193 0.618,-3.39466 0.9123,-5.12673 0.27835,-1.67228 0.58945,-3.27982 0.79939,-5.09111 0.22641,-1.88844 0.46684,-3.75951 0.6529,-5.70712 0.10591,-1.67039 0.0592,-3.38297 0.0567,-5.08603 -0.0183,-2.04741 -0.0509,-4.09706 -0.14778,-6.11829 -0.0988,-1.90111 -0.21567,-3.82281 -0.426,-5.60389 -0.29878,-2.23853 -0.59858,-4.47195 -0.87147,-6.75442 -0.31685,-2.18497 -0.69607,-4.17671 -1.15219,-6.00596 -0.37715,-1.62434 -0.73138,-3.31497 -1.12014,-4.90398 -0.32871,-1.49499 -0.62897,-3.07288 -0.9955,-4.45687 -0.32234,-1.58153 -0.56451,-3.36896 -0.71573,-5.2631 -0.0701,-1.95678 -0.0631,-3.915599 -0.0442,-5.887363 0.0254,-2.671434 0.059,-5.373118 0.25469,-7.964166 0.19204,-2.228886 0.37386,-4.4696 0.5496,-6.716195 0.19951,-2.319289 0.35744,-4.758817 0.77791,-6.702672 0.3201,-1.521541 0.64827,-3.028263 1.01609,-4.401889 0.38736,-1.459361 0.84641,-2.618092 1.21949,-4.129067 0.40805,-1.908305 0.71686,-4.086059 0.94542,-6.355645 0,0 -3.06392,5.300823 -3.06392,5.300823 z" />
    <path
       style="fill:#0000ff;stroke-width:0.152635"
       id="path88-5"
       d="m 101.16528,62.002635 c -0.254,2.117535 -0.53594,4.164302 -0.9836,5.825302 -0.0802,0.268419 -0.15609,0.554646 -0.240484,0.80529 -0.22288,0.661978 -0.46489,1.214581 -0.66846,1.968059 -0.66932,2.47752 0.29557,-0.874514 -0.33761,1.297908 -0.32547,1.545478 -0.70597,2.945999 -0.98349,4.611085 -0.0521,0.248319 -0.11368,0.473729 -0.15632,0.744989 -0.16533,1.051799 -0.22328,2.339324 -0.32081,3.482921 -0.47258,5.5414 0.22672,-2.804165 -0.2391,2.774861 -0.16496,2.277726 -0.38996,4.490598 -0.56467,6.756629 -0.14536,2.709376 -0.17912,5.473938 -0.20803,8.225775 -0.0308,2.058646 -0.0343,4.082516 0.058,6.115166 0.19569,2.04639 0.44778,4.0218 0.79543,5.78301 0.36095,1.41936 0.67692,2.96219 0.99837,4.49714 0.38557,1.62128 0.76368,3.26053 1.13996,4.91025 0.42522,1.80756 0.815974,3.66302 1.124384,5.76778 0.27715,2.25686 0.55994,4.50287 0.84728,6.74362 0.17829,1.71105 0.29404,3.52015 0.38662,5.31968 0.0884,1.96847 0.10653,3.96432 0.11635,5.95464 -0.0138,1.59081 0.0816,3.2394 -0.11764,4.70694 -0.20292,1.86563 -0.39849,3.78435 -0.65989,5.55299 -0.22806,1.75114 -0.53346,3.32584 -0.80786,4.98054 -0.31792,1.64612 -0.576154,3.45508 -0.924164,5.01857 -0.3007,1.66165 -0.67158,3.11313 -1.08012,4.42337 -0.36761,1.3618 -0.77015,2.59561 -1.11792,4.03288 -0.43787,1.70351 -0.93865,3.16744 -1.35235,4.96488 -0.21041,1.54958 -0.558776,2.712 -0.854158,4.02944 -0.255885,1.15531 -0.604146,1.85053 -0.896892,2.85319 -0.216186,0.52233 -0.115679,0.22338 -0.300988,0.89923 0,0 3.142818,-4.65873 3.142818,-4.65873 v 0 c 0.20189,-0.56737 0.10108,-0.27121 0.30206,-0.89008 0.31446,-0.91681 0.61894,-1.84725 0.86949,-3.01336 0.30944,-1.27131 0.57966,-2.6366 0.85598,-3.99996 0.43829,-1.67298 0.90957,-3.21694 1.341584,-4.91059 0.37538,-1.34832 0.76156,-2.65643 1.14199,-3.98553 0.39108,-1.40579 0.73175,-2.97571 1.04667,-4.61423 0.31542,-1.68191 0.618,-3.39464 0.9123,-5.12671 0.27835,-1.67228 0.58945,-3.27982 0.79939,-5.09111 0.22641,-1.88844 0.46684,-3.75951 0.65291,-5.70714 0.10591,-1.67038 0.0592,-3.38297 0.0567,-5.08601 -0.0183,-2.04742 -0.0509,-4.09706 -0.14779,-6.11831 -0.0988,-1.90109 -0.21567,-3.82279 -0.426,-5.60387 -0.29878,-2.23853 -0.59858,-4.47196 -0.87146,-6.75442 -0.31686,-2.18497 -0.69608,-4.17672 -1.1522,-6.00596 -0.37715,-1.62434 -0.73138,-3.31497 -1.12014,-4.90398 -0.3287,-1.49499 -0.62896,-3.07288 -0.99548,-4.45687 -0.322354,-1.58153 -0.564524,-3.36896 -0.715744,-5.263099 -0.0701,-1.956779 -0.0631,-3.915601 -0.0442,-5.887364 0.0254,-2.671434 0.059,-5.373119 0.25469,-7.964166 0.19204,-2.228886 0.373864,-4.4696 0.549604,-6.716195 0.19951,-2.31929 0.35744,-4.758818 0.77791,-6.702672 0.32009,-1.521541 0.64826,-3.028263 1.01608,-4.401889 0.38737,-1.459362 0.84641,-2.618093 1.21949,-4.129068 0.40805,-1.908305 0.71686,-4.086058 0.94542,-6.355644 0,0 -3.06392,5.300822 -3.06392,5.300822 z" />
    <rect
       style="fill:#333333;stroke-width:0.19541"
       id="rect126"
       width="55.184525"
       height="30.994045"
       x="38.632591"
       y="186.52007"
       rx="13.620373"
       ry="7.6558337" />
    <rect
       style="fill:#333333;stroke-width:0.19541"
       id="rect126-7"
       width="55.184525"
       height="30.994047"
       x="93.817116"
       y="186.52007"
       rx="13.620374"
       ry="7.6558337" />
    <text
       xml:space="preserve"
       id="text160"
       style="font-style:normal;font-weight:normal;font-size:10.5833px;line-height:1.25;font-family:sans-serif;white-space:pre;shape-inside:url(#rect162);fill:#00ffff;fill-opacity:1;stroke:none;"
       transform="matrix(1.695252,0,0,2.7920293,-25.76081,-335.96342)"><tspan
         x="38.632812"
         y="196.175"><tspan
           style="font-weight:bold">COOL</tspan></tspan></text>
    <text
       xml:space="preserve"
       id="text166"
       style="font-style:normal;font-variant:normal;font-weight:bold;font-stretch:normal;font-size:10.5833px;line-height:1.25;font-family:sans-serif;-inkscape-font-specification:'sans-serif, Bold';font-variant-ligatures:normal;font-variant-caps:normal;font-variant-numeric:normal;font-variant-east-asian:normal;white-space:pre;shape-inside:url(#rect168);fill:#ff2a2a;fill-opacity:1;stroke:none;"
       transform="matrix(1.0831174,0,0,1.6787274,4.3205526,-120.08923)"><tspan
         x="93.816406"
         y="196.175"><tspan
           style="font-style:normal;font-variant:normal;font-weight:normal;font-stretch:normal;font-size:10.5833px;font-family:sans-serif;-inkscape-font-specification:'sans-serif, Bold';font-variant-ligatures:normal;font-variant-caps:normal;font-variant-numeric:normal;font-variant-east-asian:normal;fill:#ff2a2a">HEAT</tspan></tspan></text>
  </g>
</svg>
