<?xml version="1.0" encoding="UTF-8" standalone="no"?>
<svg
   xmlns:dc="http://purl.org/dc/elements/1.1/"
   xmlns:cc="http://creativecommons.org/ns#"
   xmlns:rdf="http://www.w3.org/1999/02/22-rdf-syntax-ns#"
   xmlns:svg="http://www.w3.org/2000/svg"
   xmlns="http://www.w3.org/2000/svg"
   xmlns:sodipodi="http://sodipodi.sourceforge.net/DTD/sodipodi-0.dtd"
   xmlns:inkscape="http://www.inkscape.org/namespaces/inkscape"
   width="210mm"
   height="297mm"
   viewBox="0 0 210 297"
   version="1.1"
   id="svg8"
   inkscape:version="1.0.1 (3bc2e813f5, 2020-09-07)"
   sodipodi:docname="SeatWarmerCooler.svg">
  <defs
     id="defs2">
    <rect
       x="93.817116"
       y="186.52007"
       width="55.184532"
       height="30.994049"
       id="rect168" />
    <rect
       x="38.632591"
       y="186.52007"
       width="55.184525"
       height="30.994049"
       id="rect162" />
  </defs>
  <sodipodi:namedview
     id="base"
     pagecolor="#ffffff"
     bordercolor="#666666"
     borderopacity="1.0"
     inkscape:pageopacity="0.0"
     inkscape:pageshadow="2"
     inkscape:zoom="0.35"
     inkscape:cx="284.28571"
     inkscape:cy="560"
     inkscape:document-units="mm"
     inkscape:current-layer="layer1"
     inkscape:document-rotation="0"
     showgrid="false"
     inkscape:window-width="1920"
     inkscape:window-height="1017"
     inkscape:window-x="3832"
     inkscape:window-y="-8"
     inkscape:window-maximized="1" />
  <metadata
     id="metadata5">
    <rdf:RDF>
      <cc:Work
         rdf:about="">
        <dc:format>image/svg+xml</dc:format>
        <dc:type
           rdf:resource="http://purl.org/dc/dcmitype/StillImage" />
        <dc:title />
      </cc:Work>
    </rdf:RDF>
  </metadata>
  <g
     inkscape:label="Layer 1"
     inkscape:groupmode="layer"
     id="layer1">
    <rect
       style="fill:#333333;stroke-width:0.264583"
       id="rect50"
       width="100.54168"
       height="31.75001"
       x="-158.95461"
       y="-155.95331"
       ry="14.288177"
       transform="rotate(-178.08554)"
       rx="11.962216" />
    <rect
       style="fill:#333333;stroke-width:0.255749"
       id="rect52"
       width="96.834015"
       height="30.602554"
       x="-7.376318"
       y="186.16022"
       ry="11.016926"
       transform="matrix(0.2544421,-0.96708801,0.70026731,0.71388072,0,0)"
       rx="17.351982" />
    <path
       style="fill:#ff0000;stroke-width:0.155218"
       id="path88"
       d="m 76.062144,56.534229 c -0.254002,2.189828 -0.535937,4.306472 -0.983594,6.024179 -0.08016,0.277583 -0.156094,0.573582 -0.240484,0.832784 -0.222879,0.684577 -0.464894,1.256047 -0.668456,2.035248 -0.669326,2.562104 0.295572,-0.90437 -0.337608,1.342219 -0.325478,1.598242 -0.705971,3.046577 -0.983491,4.76851 -0.05211,0.256796 -0.113688,0.489902 -0.156325,0.770423 -0.165333,1.087707 -0.223284,2.419189 -0.32081,3.601829 -0.472576,5.730584 0.226722,-2.8999 -0.239098,2.869595 -0.164958,2.355489 -0.38996,4.643909 -0.564672,6.987303 -0.145357,2.801875 -0.179116,5.660819 -0.208031,8.506605 -0.03082,2.128927 -0.03426,4.221898 0.05802,6.323936 0.195689,2.11625 0.44778,4.15911 0.795432,5.98044 0.360945,1.46782 0.676924,3.06333 0.998366,4.65068 0.385569,1.67663 0.76368,3.37185 1.139959,5.07789 0.425228,1.86927 0.815977,3.78807 1.124387,5.96469 0.277148,2.33391 0.559938,4.6566 0.847276,6.97385 0.178292,1.76947 0.294042,3.64033 0.386618,5.50129 0.08835,2.03568 0.106535,4.09967 0.11635,6.15794 -0.01375,1.64513 0.08156,3.35 -0.117639,4.86764 -0.202921,1.92932 -0.398488,3.91354 -0.659887,5.74257 -0.228056,1.81092 -0.533463,3.43938 -0.807863,5.15058 -0.317915,1.70231 -0.576143,3.57304 -0.924152,5.1899 -0.300702,1.71838 -0.671588,3.21942 -1.080126,4.57438 -0.36761,1.40829 -0.77015,2.68423 -1.117915,4.17057 -0.43787,1.76167 -0.938652,3.27558 -1.352357,5.13438 -0.210403,1.60248 -0.558772,2.80459 -0.854154,4.16701 -0.255885,1.19475 -0.604146,1.9137 -0.896892,2.95059 -0.216186,0.54017 -0.115679,0.23101 -0.300988,0.92994 0,0 3.142822,-4.81778 3.142822,-4.81778 v 0 c 0.20188,-0.58674 0.101078,-0.28047 0.302057,-0.92047 0.314459,-0.94811 0.618933,-1.91032 0.869492,-3.11624 0.30944,-1.31471 0.579654,-2.72661 0.855974,-4.13652 0.438291,-1.73009 0.909571,-3.32677 1.341585,-5.07823 0.375376,-1.39436 0.761557,-2.74713 1.141985,-4.12161 0.391086,-1.45378 0.731751,-3.07729 1.046669,-4.77175 0.315419,-1.73934 0.618007,-3.51054 0.912306,-5.30174 0.27835,-1.72937 0.589446,-3.3918 0.79939,-5.26492 0.226411,-1.95291 0.466837,-3.88787 0.652903,-5.90199 0.10591,-1.72741 0.05916,-3.49846 0.05671,-5.25965 -0.01827,-2.11731 -0.05089,-4.23693 -0.147781,-6.32718 -0.09882,-1.966 -0.215673,-3.9533 -0.426006,-5.7952 -0.298778,-2.31495 -0.598576,-4.62463 -0.871463,-6.98502 -0.316857,-2.25956 -0.696076,-4.3193 -1.152193,-6.211 -0.377156,-1.67979 -0.73138,-3.42815 -1.120142,-5.0714 -0.328702,-1.54603 -0.628961,-3.17779 -0.995485,-4.60903 -0.322344,-1.635524 -0.564515,-3.483983 -0.715735,-5.442784 -0.07014,-2.023584 -0.06308,-4.049281 -0.04422,-6.08836 0.02541,-2.762638 0.059,-5.556559 0.254686,-8.236066 0.192042,-2.304981 0.373861,-4.622193 0.5496,-6.945488 0.199516,-2.39847 0.35744,-4.921285 0.77791,-6.931503 0.320094,-1.573487 0.648268,-3.131649 1.016081,-4.552171 0.387368,-1.509184 0.846412,-2.707475 1.219492,-4.270035 0.408049,-1.973455 0.71686,-4.225558 0.94542,-6.572628 0,0 -3.06392,5.481794 -3.06392,5.481794 z" />
    <path
       style="fill:#ff0000;stroke-width:0.155218"
       id="path88-2"
       d="m 129.42443,61.498222 c -0.25402,2.189828 -0.53595,4.306472 -0.98361,6.024179 -0.0802,0.277583 -0.15609,0.573582 -0.24048,0.832783 -0.22288,0.684578 -0.4649,1.256048 -0.66846,2.035249 -0.66932,2.562104 0.29557,-0.90437 -0.33761,1.342219 -0.32547,1.598242 -0.70597,3.046577 -0.98349,4.76851 -0.0521,0.256796 -0.11369,0.489902 -0.15632,0.770422 -0.16534,1.087708 -0.22329,2.419189 -0.32081,3.60183 -0.47258,5.730584 0.22672,-2.899901 -0.2391,2.869595 -0.16496,2.355489 -0.38996,4.643909 -0.56467,6.987303 -0.14536,2.801875 -0.17912,5.660819 -0.20803,8.506605 -0.0308,2.128923 -0.0343,4.221903 0.058,6.323943 0.19569,2.11625 0.44778,4.15911 0.79543,5.98044 0.36094,1.46781 0.67692,3.06332 0.99836,4.65067 0.38557,1.67664 0.76368,3.37185 1.13996,5.0779 0.42523,1.86928 0.81598,3.78807 1.12439,5.96468 0.27715,2.33391 0.55995,4.65661 0.84729,6.97385 0.17829,1.76947 0.29404,3.64033 0.38661,5.5013 0.0883,2.03568 0.10654,4.09967 0.11635,6.15793 -0.0138,1.64513 0.0816,3.35 -0.11763,4.86766 -0.20293,1.9293 -0.39849,3.91354 -0.65989,5.74257 -0.22807,1.81091 -0.53347,3.43937 -0.80787,5.15056 -0.31792,1.70232 -0.57615,3.57304 -0.92416,5.1899 -0.3007,1.71838 -0.67158,3.21942 -1.08012,4.57439 -0.36761,1.4083 -0.77015,2.68424 -1.11792,4.17058 -0.43787,1.76165 -0.93865,3.27556 -1.35235,5.13436 -0.21041,1.60249 -0.55878,2.80459 -0.85416,4.16701 -0.25588,1.19475 -0.60414,1.91372 -0.89689,2.9506 -0.21619,0.54017 -0.11568,0.23101 -0.30099,0.92993 0,0 3.14282,-4.81776 3.14282,-4.81776 v 0 c 0.20188,-0.58674 0.10108,-0.28049 0.30206,-0.92049 0.31446,-0.94811 0.61893,-1.91032 0.86949,-3.11624 0.30944,-1.31469 0.57966,-2.72661 0.85598,-4.1365 0.43829,-1.73011 0.90957,-3.32678 1.34158,-5.07823 0.37538,-1.39438 0.76156,-2.74714 1.142,-4.12161 0.39108,-1.4538 0.73175,-3.07731 1.04667,-4.77175 0.31541,-1.73936 0.618,-3.51056 0.9123,-5.30176 0.27835,-1.72937 0.58945,-3.39179 0.79939,-5.26492 0.22641,-1.95291 0.46684,-3.88787 0.6529,-5.90197 0.10591,-1.72741 0.0592,-3.49846 0.0567,-5.25966 -0.0183,-2.11732 -0.0509,-4.23693 -0.14778,-6.32717 -0.0988,-1.96602 -0.21567,-3.95332 -0.426,-5.79522 -0.29878,-2.31494 -0.59858,-4.62461 -0.87147,-6.98501 -0.31685,-2.25956 -0.69607,-4.31931 -1.15219,-6.21101 -0.37715,-1.67979 -0.73138,-3.42814 -1.12014,-5.0714 -0.32871,-1.54603 -0.62897,-3.17779 -0.9955,-4.60903 -0.32234,-1.63552 -0.56451,-3.48398 -0.71573,-5.442781 -0.0701,-2.023584 -0.0631,-4.049281 -0.0442,-6.088361 0.0254,-2.762637 0.059,-5.556558 0.25469,-8.236065 0.19204,-2.304981 0.37386,-4.622194 0.5496,-6.945488 0.19951,-2.39847 0.35744,-4.921285 0.77791,-6.931503 0.3201,-1.573487 0.64827,-3.131649 1.01609,-4.552171 0.38736,-1.509184 0.84641,-2.707475 1.21949,-4.270035 0.40805,-1.973455 0.71686,-4.225558 0.94542,-6.572629 0,0 -3.06392,5.481795 -3.06392,5.481795 z" />
    <path
       style="fill:#ff0000;stroke-width:0.155218"
       id="path88-5"
       d="m 101.16528,57.675604 c -0.254,2.189828 -0.53594,4.306473 -0.9836,6.024179 -0.0802,0.277583 -0.15609,0.573583 -0.240484,0.832784 -0.22288,0.684578 -0.46489,1.256047 -0.66846,2.035249 -0.66932,2.562103 0.29557,-0.90437 -0.33761,1.342218 -0.32547,1.598242 -0.70597,3.046577 -0.98349,4.76851 -0.0521,0.256796 -0.11368,0.489902 -0.15632,0.770423 -0.16533,1.087707 -0.22328,2.419189 -0.32081,3.601829 -0.47258,5.730585 0.22672,-2.8999 -0.2391,2.869596 -0.16496,2.355488 -0.38996,4.643908 -0.56467,6.987302 -0.14536,2.801875 -0.17912,5.66082 -0.20803,8.506605 -0.0308,2.128928 -0.0343,4.221899 0.058,6.323941 0.19569,2.11625 0.44778,4.15911 0.79543,5.98044 0.36095,1.46782 0.67692,3.06333 0.99837,4.65068 0.38557,1.67663 0.76368,3.37185 1.13996,5.07789 0.42522,1.86926 0.815974,3.78807 1.124384,5.96469 0.27715,2.33391 0.55994,4.6566 0.84728,6.97385 0.17829,1.76946 0.29404,3.64032 0.38662,5.50129 0.0884,2.03568 0.10653,4.09967 0.11635,6.15794 -0.0138,1.64512 0.0816,3.34999 -0.11764,4.86763 -0.20292,1.92932 -0.39849,3.91355 -0.65989,5.74258 -0.22806,1.81092 -0.53346,3.43938 -0.80786,5.15057 -0.31792,1.70232 -0.576154,3.57304 -0.924164,5.1899 -0.3007,1.71838 -0.67158,3.21942 -1.08012,4.57439 -0.36761,1.40829 -0.77015,2.68423 -1.11792,4.17057 -0.43787,1.76166 -0.93865,3.27557 -1.35235,5.13437 -0.21041,1.60249 -0.558776,2.80459 -0.854158,4.16701 -0.255885,1.19476 -0.604146,1.91371 -0.896892,2.9506 -0.216186,0.54017 -0.115679,0.23101 -0.300988,0.92993 0,0 3.142818,-4.81778 3.142818,-4.81778 v 0 c 0.20189,-0.58674 0.10108,-0.28047 0.30206,-0.92046 0.31446,-0.94811 0.61894,-1.91033 0.86949,-3.11624 0.30944,-1.31472 0.57966,-2.72662 0.85598,-4.13652 0.43829,-1.73009 0.90957,-3.32677 1.341584,-5.07824 0.37538,-1.39435 0.76156,-2.74712 1.14199,-4.1216 0.39108,-1.45378 0.73175,-3.0773 1.04667,-4.77176 0.31542,-1.73933 0.618,-3.51054 0.9123,-5.30174 0.27835,-1.72937 0.58945,-3.39179 0.79939,-5.26492 0.22641,-1.95291 0.46684,-3.88786 0.65291,-5.90198 0.10591,-1.72742 0.0592,-3.49846 0.0567,-5.25965 -0.0183,-2.11732 -0.0509,-4.23693 -0.14779,-6.32719 -0.0988,-1.966 -0.21567,-3.9533 -0.426,-5.79519 -0.29878,-2.31495 -0.59858,-4.62464 -0.87146,-6.98502 -0.31686,-2.25956 -0.69608,-4.31931 -1.1522,-6.21101 -0.37715,-1.67979 -0.73138,-3.42814 -1.12014,-5.07139 -0.3287,-1.54604 -0.62896,-3.1778 -0.99548,-4.60904 -0.322354,-1.635519 -0.564524,-3.483977 -0.715744,-5.442778 -0.0701,-2.023584 -0.0631,-4.049281 -0.0442,-6.088361 0.0254,-2.762638 0.059,-5.556559 0.25469,-8.236065 0.19204,-2.304981 0.373864,-4.622194 0.549604,-6.945488 0.19951,-2.398471 0.35744,-4.921285 0.77791,-6.931504 0.32009,-1.573486 0.64826,-3.131649 1.01608,-4.552171 0.38737,-1.509184 0.84641,-2.707474 1.21949,-4.270035 0.40805,-1.973455 0.71686,-4.225558 0.94542,-6.572628 0,0 -3.06392,5.481794 -3.06392,5.481794 z" />
    <rect
       style="fill:#333333;stroke-width:0.19541"
       id="rect126"
       width="55.184525"
       height="30.994045"
       x="38.632591"
       y="186.52007"
       rx="13.620373"
       ry="7.6558337" />
    <rect
       style="fill:#333333;stroke-width:0.19541"
       id="rect126-7"
       width="55.184525"
       height="30.994047"
       x="93.817116"
       y="186.52007"
       rx="13.620374"
       ry="7.6558337" />
    <text
       xml:space="preserve"
       id="text160"
       style="font-style:normal;font-weight:normal;font-size:10.5833px;line-height:1.25;font-family:sans-serif;white-space:pre;shape-inside:url(#rect162);fill:#00ffff;fill-opacity:1;stroke:none;"
       transform="matrix(1,0,0,1.1886347,12.095238,-27.208242)"><tspan
         x="38.632812"
         y="196.175"><tspan
           style="fill:#00ffff">COOL</tspan></tspan></text>
    <text
       xml:space="preserve"
       id="text166"
       style="font-style:normal;font-variant:normal;font-weight:bold;font-stretch:normal;font-size:10.5833px;line-height:1.25;font-family:sans-serif;-inkscape-font-specification:'sans-serif, Bold';font-variant-ligatures:normal;font-variant-caps:normal;font-variant-numeric:normal;font-variant-east-asian:normal;white-space:pre;shape-inside:url(#rect168);fill:#ff2a2a;fill-opacity:1;stroke:none;"
       transform="matrix(1.5918406,0,0,3.0541515,-52.247283,-385.37734)"><tspan
         x="93.816406"
         y="196.175"><tspan
           style="font-style:normal;font-variant:normal;font-weight:bold;font-stretch:normal;font-size:10.5833px;font-family:sans-serif;-inkscape-font-specification:'sans-serif, Bold';font-variant-ligatures:normal;font-variant-caps:normal;font-variant-numeric:normal;font-variant-east-asian:normal;fill:#ff2a2a">HEAT</tspan></tspan></text>
  </g>
</svg>
