<?xml version="1.0" encoding="UTF-8" standalone="no"?>
<svg
   xmlns:dc="http://purl.org/dc/elements/1.1/"
   xmlns:cc="http://creativecommons.org/ns#"
   xmlns:rdf="http://www.w3.org/1999/02/22-rdf-syntax-ns#"
   xmlns:svg="http://www.w3.org/2000/svg"
   xmlns="http://www.w3.org/2000/svg"
   xmlns:sodipodi="http://sodipodi.sourceforge.net/DTD/sodipodi-0.dtd"
   xmlns:inkscape="http://www.inkscape.org/namespaces/inkscape"
   width="210mm"
   height="297mm"
   viewBox="0 0 210 297"
   version="1.1"
   id="svg8"
   inkscape:version="1.0.1 (3bc2e813f5, 2020-09-07)"
   sodipodi:docname="SeatClimateOFF.svg">
  <defs
     id="defs2">
    <rect
       x="121.70833"
       y="94.494048"
       width="17.479143"
       height="14.765142"
       id="rect103" />
    <rect
       x="93.817116"
       y="186.52007"
       width="55.184532"
       height="30.994049"
       id="rect168" />
    <rect
       x="38.632591"
       y="186.52007"
       width="55.184525"
       height="30.994049"
       id="rect162" />
    <rect
       x="38.632591"
       y="186.52007"
       width="55.184525"
       height="30.994049"
       id="rect162-2" />
    <rect
       x="38.632591"
       y="186.52007"
       width="55.184525"
       height="30.994049"
       id="rect35" />
    <rect
       x="38.632591"
       y="186.52007"
       width="55.184525"
       height="30.994049"
       id="rect162-26" />
    <rect
       x="38.632591"
       y="186.52007"
       width="55.184525"
       height="30.994049"
       id="rect80" />
  </defs>
  <sodipodi:namedview
     id="base"
     pagecolor="#ffffff"
     bordercolor="#666666"
     borderopacity="1.0"
     inkscape:pageopacity="0.0"
     inkscape:pageshadow="2"
     inkscape:zoom="0.35"
     inkscape:cx="284.28571"
     inkscape:cy="560"
     inkscape:document-units="mm"
     inkscape:current-layer="layer1"
     inkscape:document-rotation="0"
     showgrid="false"
     inkscape:window-width="1920"
     inkscape:window-height="1017"
     inkscape:window-x="3832"
     inkscape:window-y="-8"
     inkscape:window-maximized="1" />
  <metadata
     id="metadata5">
    <rdf:RDF>
      <cc:Work
         rdf:about="">
        <dc:format>image/svg+xml</dc:format>
        <dc:type
           rdf:resource="http://purl.org/dc/dcmitype/StillImage" />
        <dc:title />
      </cc:Work>
    </rdf:RDF>
  </metadata>
  <g
     inkscape:label="Layer 1"
     inkscape:groupmode="layer"
     id="layer1">
    <rect
       style="fill:#333333;stroke-width:0.264583"
       id="rect50"
       width="100.54168"
       height="31.75001"
       x="-158.95461"
       y="-155.95331"
       ry="14.288177"
       transform="rotate(-178.08554)"
       rx="11.962216" />
    <rect
       style="fill:#333333;stroke-width:0.255749"
       id="rect52"
       width="96.834015"
       height="30.602554"
       x="-7.376318"
       y="186.16022"
       ry="11.016926"
       transform="matrix(0.2544421,-0.96708801,0.70026731,0.71388072,0,0)"
       rx="17.351982" />
    <path
       style="fill:#999999;stroke-width:0.118424"
       id="path88"
       d="m 76.062144,111.78573 c -0.254002,1.27469 -0.535937,2.50678 -0.983594,3.50665 -0.08016,0.16158 -0.156094,0.33388 -0.240484,0.48476 -0.222879,0.39849 -0.464894,0.73114 -0.668456,1.18471 -0.669326,1.49139 0.295572,-0.52643 -0.337608,0.7813 -0.325478,0.93033 -0.705971,1.7734 -0.983491,2.77573 -0.05211,0.14948 -0.113688,0.28517 -0.156325,0.44846 -0.165333,0.63315 -0.223284,1.4082 -0.32081,2.09661 -0.472576,3.33575 0.226722,-1.68802 -0.239098,1.67038 -0.164958,1.37112 -0.38996,2.7032 -0.564672,4.06728 -0.145357,1.63096 -0.179116,3.29514 -0.208031,4.95166 -0.03082,1.23924 -0.03426,2.45755 0.05802,3.68114 0.195689,1.23186 0.44778,2.421 0.795432,3.48119 0.360945,0.85441 0.676924,1.78315 0.998366,2.70714 0.385569,0.97596 0.76368,1.96274 1.139959,2.95582 0.425228,1.08809 0.815977,2.20502 1.124387,3.47202 0.277148,1.35856 0.559938,2.71059 0.847276,4.05945 0.178292,1.03 0.294042,2.11902 0.386618,3.20228 0.08835,1.18496 0.106535,2.3864 0.11635,3.58451 -0.01375,0.95762 0.08156,1.95002 -0.117639,2.83343 -0.202921,1.12305 -0.398488,2.27806 -0.659887,3.34273 -0.228056,1.05413 -0.533463,2.00205 -0.807863,2.99813 -0.317915,0.99091 -0.576143,2.07985 -0.924152,3.02102 -0.300702,1.00026 -0.671588,1.87401 -1.080126,2.66273 -0.36761,0.81976 -0.77015,1.56248 -1.117915,2.42767 -0.43787,1.02546 -0.938652,1.9067 -1.352357,2.9887 -0.210403,0.9328 -0.558772,1.63254 -0.854154,2.4256 -0.255885,0.69546 -0.604146,1.11396 -0.896892,1.71753 -0.216186,0.31443 -0.115679,0.13447 -0.300988,0.54131 0,0 3.142822,-2.80441 3.142822,-2.80441 v 0 c 0.20188,-0.34154 0.101078,-0.16326 0.302057,-0.5358 0.314459,-0.55189 0.618933,-1.11199 0.869492,-1.81395 0.30944,-0.76529 0.579654,-1.58715 0.855974,-2.40785 0.438291,-1.00708 0.909571,-1.9365 1.341585,-2.95602 0.375376,-0.81165 0.761557,-1.59909 1.141985,-2.39917 0.391086,-0.84624 0.731751,-1.79128 1.046669,-2.77762 0.315419,-1.01246 0.618007,-2.04347 0.912306,-3.08612 0.27835,-1.00666 0.589446,-1.97435 0.79939,-3.06469 0.226411,-1.13678 0.466837,-2.26311 0.652903,-3.43552 0.10591,-1.00552 0.05916,-2.03644 0.05671,-3.06162 -0.01827,-1.23248 -0.05089,-2.4663 -0.147781,-3.68303 -0.09882,-1.1444 -0.215673,-2.3012 -0.426006,-3.37336 -0.298778,-1.34752 -0.598576,-2.69198 -0.871463,-4.06595 -0.316857,-1.31528 -0.696076,-2.51425 -1.152193,-3.6154 -0.377156,-0.9778 -0.73138,-1.99551 -1.120142,-2.95204 -0.328702,-0.89994 -0.628961,-1.84978 -0.995485,-2.6829 -0.322344,-0.95203 -0.564515,-2.02801 -0.715735,-3.16822 -0.07014,-1.17792 -0.06308,-2.35707 -0.04422,-3.54401 0.02541,-1.60812 0.059,-3.23445 0.254686,-4.79418 0.192042,-1.34172 0.373861,-2.69056 0.5496,-4.04294 0.199516,-1.39614 0.35744,-2.86466 0.77791,-4.0348 0.320094,-0.91592 0.648268,-1.82292 1.016081,-2.6498 0.387368,-0.87849 0.846412,-1.57601 1.219492,-2.48557 0.408049,-1.14874 0.71686,-2.45968 0.94542,-3.8259 0,0 -3.06392,3.19093 -3.06392,3.19093 z" />
    <path
       style="fill:#999999;stroke-width:0.118424"
       id="path88-2"
       d="m 129.42443,114.67525 c -0.25402,1.27469 -0.53595,2.50678 -0.98361,3.50665 -0.0802,0.16158 -0.15609,0.33388 -0.24048,0.48476 -0.22288,0.39849 -0.4649,0.73114 -0.66846,1.18471 -0.66932,1.49139 0.29557,-0.52643 -0.33761,0.7813 -0.32547,0.93033 -0.70597,1.7734 -0.98349,2.77573 -0.0521,0.14948 -0.11369,0.28517 -0.15632,0.44846 -0.16534,0.63315 -0.22329,1.4082 -0.32081,2.09661 -0.47258,3.33575 0.22672,-1.68802 -0.2391,1.67038 -0.16496,1.37112 -0.38996,2.7032 -0.56467,4.06728 -0.14536,1.63096 -0.17912,3.29514 -0.20803,4.95166 -0.0308,1.23924 -0.0343,2.45755 0.058,3.68114 0.19569,1.23186 0.44778,2.421 0.79543,3.48119 0.36094,0.85441 0.67692,1.78315 0.99836,2.70714 0.38557,0.97596 0.76368,1.96274 1.13996,2.95582 0.42523,1.0881 0.81598,2.20502 1.12439,3.47202 0.27715,1.35856 0.55995,2.71059 0.84729,4.05945 0.17829,1.03 0.29404,2.11902 0.38661,3.20228 0.0883,1.18496 0.10654,2.3864 0.11635,3.58451 -0.0138,0.95762 0.0816,1.95002 -0.11763,2.83344 -0.20293,1.12304 -0.39849,2.27806 -0.65989,3.34273 -0.22807,1.05412 -0.53347,2.00204 -0.80787,2.99812 -0.31792,0.99091 -0.57615,2.07985 -0.92416,3.02102 -0.3007,1.00026 -0.67158,1.87401 -1.08012,2.66273 -0.36761,0.81977 -0.77015,1.56249 -1.11792,2.42768 -0.43787,1.02545 -0.93865,1.90669 -1.35235,2.98869 -0.21041,0.9328 -0.55878,1.63254 -0.85416,2.4256 -0.25588,0.69546 -0.60414,1.11397 -0.89689,1.71753 -0.21619,0.31443 -0.11568,0.13447 -0.30099,0.54131 0,0 3.14282,-2.8044 3.14282,-2.8044 v 0 c 0.20188,-0.34154 0.10108,-0.16327 0.30206,-0.53581 0.31446,-0.55189 0.61893,-1.11199 0.86949,-1.81395 0.30944,-0.76528 0.57966,-1.58715 0.85598,-2.40784 0.43829,-1.00709 0.90957,-1.93651 1.34158,-2.95602 0.37538,-0.81166 0.76156,-1.5991 1.142,-2.39917 0.39108,-0.84625 0.73175,-1.79129 1.04667,-2.77762 0.31541,-1.01247 0.618,-2.04348 0.9123,-3.08613 0.27835,-1.00666 0.58945,-1.97435 0.79939,-3.06469 0.22641,-1.13678 0.46684,-2.26311 0.6529,-3.43551 0.10591,-1.00552 0.0592,-2.03644 0.0567,-3.06163 -0.0183,-1.23248 -0.0509,-2.4663 -0.14778,-3.68302 -0.0988,-1.14441 -0.21567,-2.30121 -0.426,-3.37337 -0.29878,-1.34752 -0.59858,-2.69197 -0.87147,-4.06595 -0.31685,-1.31528 -0.69607,-2.51425 -1.15219,-3.6154 -0.37715,-0.9778 -0.73138,-1.99551 -1.12014,-2.95204 -0.32871,-0.89994 -0.62897,-1.84978 -0.9955,-2.6829 -0.32234,-0.95203 -0.56451,-2.02801 -0.71573,-3.16822 -0.0701,-1.17792 -0.0631,-2.35707 -0.0442,-3.54401 0.0254,-1.60812 0.059,-3.23445 0.25469,-4.79418 0.19204,-1.34172 0.37386,-2.69056 0.5496,-4.04294 0.19951,-1.39614 0.35744,-2.86466 0.77791,-4.0348 0.3201,-0.91592 0.64827,-1.82292 1.01609,-2.6498 0.38736,-0.87849 0.84641,-1.57601 1.21949,-2.48557 0.40805,-1.14874 0.71686,-2.45968 0.94542,-3.8259 0,0 -3.06392,3.19093 -3.06392,3.19093 z" />
    <path
       style="fill:#999999;stroke-width:0.118424"
       id="path88-5"
       d="m 101.16528,112.45012 c -0.254,1.27469 -0.53594,2.50678 -0.9836,3.50665 -0.0802,0.16158 -0.15609,0.33388 -0.240484,0.48476 -0.22288,0.39849 -0.46489,0.73114 -0.66846,1.18471 -0.66932,1.49139 0.29557,-0.52643 -0.33761,0.7813 -0.32547,0.93033 -0.70597,1.7734 -0.98349,2.77573 -0.0521,0.14948 -0.11368,0.28517 -0.15632,0.44846 -0.16533,0.63315 -0.22328,1.4082 -0.32081,2.09661 -0.47258,3.33575 0.22672,-1.68802 -0.2391,1.67038 -0.16496,1.37112 -0.38996,2.7032 -0.56467,4.06728 -0.14536,1.63096 -0.17912,3.29514 -0.20803,4.95166 -0.0308,1.23924 -0.0343,2.45755 0.058,3.68114 0.19569,1.23186 0.44778,2.421 0.79543,3.48119 0.36095,0.85441 0.67692,1.78315 0.99837,2.70714 0.38557,0.97596 0.76368,1.96274 1.13996,2.95582 0.42522,1.08809 0.815974,2.20502 1.124384,3.47202 0.27715,1.35856 0.55994,2.71059 0.84728,4.05945 0.17829,1.03 0.29404,2.11902 0.38662,3.20228 0.0884,1.18496 0.10653,2.3864 0.11635,3.58451 -0.0138,0.95762 0.0816,1.95002 -0.11764,2.83343 -0.20292,1.12305 -0.39849,2.27806 -0.65989,3.34273 -0.22806,1.05413 -0.53346,2.00205 -0.80786,2.99813 -0.31792,0.99091 -0.576154,2.07985 -0.924164,3.02102 -0.3007,1.00026 -0.67158,1.87401 -1.08012,2.66273 -0.36761,0.81976 -0.77015,1.56248 -1.11792,2.42767 -0.43787,1.02546 -0.93865,1.9067 -1.35235,2.9887 -0.21041,0.9328 -0.558776,1.63254 -0.854158,2.4256 -0.255885,0.69546 -0.604146,1.11396 -0.896892,1.71753 -0.216186,0.31443 -0.115679,0.13447 -0.300988,0.54131 0,0 3.142818,-2.80441 3.142818,-2.80441 v 0 c 0.20189,-0.34154 0.10108,-0.16326 0.30206,-0.5358 0.31446,-0.55189 0.61894,-1.11199 0.86949,-1.81395 0.30944,-0.76529 0.57966,-1.58715 0.85598,-2.40785 0.43829,-1.00708 0.90957,-1.9365 1.341584,-2.95602 0.37538,-0.81165 0.76156,-1.59909 1.14199,-2.39917 0.39108,-0.84624 0.73175,-1.79128 1.04667,-2.77762 0.31542,-1.01246 0.618,-2.04347 0.9123,-3.08612 0.27835,-1.00666 0.58945,-1.97435 0.79939,-3.06469 0.22641,-1.13678 0.46684,-2.26311 0.65291,-3.43552 0.10591,-1.00552 0.0592,-2.03644 0.0567,-3.06162 -0.0183,-1.23248 -0.0509,-2.4663 -0.14779,-3.68303 -0.0988,-1.1444 -0.21567,-2.3012 -0.426,-3.37336 -0.29878,-1.34752 -0.59858,-2.69198 -0.87146,-4.06595 -0.31686,-1.31528 -0.69608,-2.51425 -1.1522,-3.6154 -0.37715,-0.9778 -0.73138,-1.99551 -1.12014,-2.95204 -0.3287,-0.89994 -0.62896,-1.84978 -0.99548,-2.6829 -0.322354,-0.95203 -0.564524,-2.02801 -0.715744,-3.16822 -0.0701,-1.17792 -0.0631,-2.35707 -0.0442,-3.54401 0.0254,-1.60812 0.059,-3.23445 0.25469,-4.79418 0.19204,-1.34172 0.373864,-2.69056 0.549604,-4.04294 0.19951,-1.39614 0.35744,-2.86466 0.77791,-4.0348 0.32009,-0.91592 0.64826,-1.82292 1.01608,-2.6498 0.38737,-0.87849 0.84641,-1.57601 1.21949,-2.48557 0.40805,-1.14874 0.71686,-2.45968 0.94542,-3.8259 0,0 -3.06392,3.19093 -3.06392,3.19093 z" />
    <rect
       style="fill:#333333;stroke-width:0.19541"
       id="rect126"
       width="55.184525"
       height="30.994045"
       x="38.632591"
       y="186.52007"
       rx="13.620373"
       ry="7.6558337" />
    <rect
       style="fill:#333333;stroke-width:0.19541"
       id="rect126-7"
       width="55.184525"
       height="30.994047"
       x="93.817116"
       y="186.52007"
       rx="13.620374"
       ry="7.6558337" />
    <text
       xml:space="preserve"
       id="text160"
       style="font-style:normal;font-weight:normal;font-size:10.5833px;line-height:1.25;font-family:sans-serif;white-space:pre;shape-inside:url(#rect162);fill:#00ffff;fill-opacity:1;stroke:none;"
       transform="matrix(0.97874827,0,0,1.6602213,13.6404,-117.52944)"><tspan
         x="38.632812"
         y="196.175"><tspan
           style="font-weight:normal">COOL</tspan></tspan></text>
    <text
       xml:space="preserve"
       id="text166"
       style="font-style:normal;font-variant:normal;font-weight:bold;font-stretch:normal;font-size:10.5833px;line-height:1.25;font-family:sans-serif;-inkscape-font-specification:'sans-serif, Bold';font-variant-ligatures:normal;font-variant-caps:normal;font-variant-numeric:normal;font-variant-east-asian:normal;white-space:pre;shape-inside:url(#rect168);fill:#ff2a2a;fill-opacity:1;stroke:none;"
       transform="matrix(1.0831174,0,0,1.6787274,4.3205526,-120.08923)"><tspan
         x="93.816406"
         y="196.175"><tspan
           style="font-style:normal;font-variant:normal;font-weight:normal;font-stretch:normal;font-size:10.5833px;font-family:sans-serif;-inkscape-font-specification:'sans-serif, Bold';font-variant-ligatures:normal;font-variant-caps:normal;font-variant-numeric:normal;font-variant-east-asian:normal;fill:#ff2a2a">HEAT</tspan></tspan></text>
    <rect
       style="fill:#333333;stroke-width:0.19541"
       id="rect126-3"
       width="55.184525"
       height="30.994047"
       x="79.126068"
       y="77.600754"
       rx="13.620374"
       ry="7.6558337" />
    <text
       xml:space="preserve"
       id="text160-9"
       style="font-style:normal;font-weight:normal;font-size:10.5833px;line-height:1.25;font-family:sans-serif;white-space:pre;shape-inside:url(#rect162-26);fill:#00ffff;fill-opacity:1;stroke:none;"
       transform="matrix(2.2025804,0,0,3.0749813,-2.4937034,-498.04395)"><tspan
         x="38.632812"
         y="196.175"><tspan
           style="fill:#ffffff">OFF</tspan></tspan></text>
    <text
       xml:space="preserve"
       id="text101"
       style="fill:black;fill-opacity:1;line-height:1.25;stroke:none;font-family:sans-serif;font-style:normal;font-weight:normal;font-size:10.58333333px;white-space:pre;shape-inside:url(#rect103);" />
  </g>
</svg>
