<?xml version="1.0" encoding="UTF-8" standalone="no"?>
<svg
   xmlns:dc="http://purl.org/dc/elements/1.1/"
   xmlns:cc="http://creativecommons.org/ns#"
   xmlns:rdf="http://www.w3.org/1999/02/22-rdf-syntax-ns#"
   xmlns:svg="http://www.w3.org/2000/svg"
   xmlns="http://www.w3.org/2000/svg"
   xmlns:sodipodi="http://sodipodi.sourceforge.net/DTD/sodipodi-0.dtd"
   xmlns:inkscape="http://www.inkscape.org/namespaces/inkscape"
   width="210mm"
   height="297mm"
   viewBox="0 0 210 297"
   version="1.1"
   id="svg8"
   inkscape:version="1.0.1 (3bc2e813f5, 2020-09-07)"
   sodipodi:docname="InverseHazardLights.svg">
  <defs
     id="defs2" />
  <sodipodi:namedview
     id="base"
     pagecolor="#ffffff"
     bordercolor="#666666"
     borderopacity="1.0"
     inkscape:pageopacity="0.0"
     inkscape:pageshadow="2"
     inkscape:zoom="0.35"
     inkscape:cx="231.42857"
     inkscape:cy="560"
     inkscape:document-units="mm"
     inkscape:current-layer="layer1"
     inkscape:document-rotation="0"
     showgrid="false"
     inkscape:window-width="1920"
     inkscape:window-height="1017"
     inkscape:window-x="3832"
     inkscape:window-y="-8"
     inkscape:window-maximized="1"
     showguides="true"
     objecttolerance="10"
     inkscape:pagecheckerboard="true">
    <inkscape:grid
       type="xygrid"
       id="grid14" />
  </sodipodi:namedview>
  <metadata
     id="metadata5">
    <rdf:RDF>
      <cc:Work
         rdf:about="">
        <dc:format>image/svg+xml</dc:format>
        <dc:type
           rdf:resource="http://purl.org/dc/dcmitype/StillImage" />
        <dc:title></dc:title>
      </cc:Work>
    </rdf:RDF>
  </metadata>
  <g
     inkscape:label="Layer 1"
     inkscape:groupmode="layer"
     id="layer1">
    <path
       sodipodi:type="star"
       style="fill:#000000;stroke-width:0.264583"
       id="path20"
       sodipodi:sides="3"
       sodipodi:cx="-108.67226"
       sodipodi:cy="-148.85293"
       sodipodi:r1="46.038677"
       sodipodi:r2="23.019339"
       sodipodi:arg1="0.51507282"
       sodipodi:arg2="1.5622704"
       inkscape:flatsided="true"
       inkscape:rounded="1"
       inkscape:randomized="0"
       d="m -68.606785,-126.17437 c -39.280435,69.395442 -39.280435,69.395442 -79.738425,0.67987 -40.458,-68.71558 -40.458,-68.71558 39.28043,-69.39544 79.738432,-0.67986 79.738432,-0.67986 40.457995,68.71557 z"
       inkscape:transform-center-x="0.19625343"
       inkscape:transform-center-y="11.339281"
       transform="scale(-1)" />
    <g
       id="g8"
       transform="matrix(0.26458333,0,0,0.26458333,-145.08627,-10.526617)" />
    <g
       id="g10"
       transform="matrix(0.26458333,0,0,0.26458333,-145.08627,-10.526617)" />
    <g
       id="g12"
       transform="matrix(0.26458333,0,0,0.26458333,-145.08627,-10.526617)" />
    <g
       id="g14"
       transform="matrix(0.26458333,0,0,0.26458333,-145.08627,-10.526617)" />
    <g
       id="g16"
       transform="matrix(0.26458333,0,0,0.26458333,-145.08627,-10.526617)" />
    <g
       id="g18"
       transform="matrix(0.26458333,0,0,0.26458333,-145.08627,-10.526617)" />
    <g
       id="g20"
       transform="matrix(0.26458333,0,0,0.26458333,-145.08627,-10.526617)" />
    <g
       id="g22"
       transform="matrix(0.26458333,0,0,0.26458333,-145.08627,-10.526617)" />
    <g
       id="g24"
       transform="matrix(0.26458333,0,0,0.26458333,-145.08627,-10.526617)" />
    <g
       id="g26"
       transform="matrix(0.26458333,0,0,0.26458333,-145.08627,-10.526617)" />
    <g
       id="g28"
       transform="matrix(0.26458333,0,0,0.26458333,-145.08627,-10.526617)" />
    <g
       id="g30"
       transform="matrix(0.26458333,0,0,0.26458333,-145.08627,-10.526617)" />
    <g
       id="g32"
       transform="matrix(0.26458333,0,0,0.26458333,-145.08627,-10.526617)" />
    <g
       id="g34"
       transform="matrix(0.26458333,0,0,0.26458333,-145.08627,-10.526617)" />
    <g
       id="g36"
       transform="matrix(0.26458333,0,0,0.26458333,-145.08627,-10.526617)" />
  </g>
  <g
     inkscape:groupmode="layer"
     id="layer2"
     inkscape:label="Layer 2">
    <path
       sodipodi:type="star"
       style="fill:#ff0000;stroke-width:0.206711"
       id="path20-5"
       sodipodi:sides="3"
       sodipodi:cx="-108.55862"
       sodipodi:cy="-148.85729"
       sodipodi:r1="35.968716"
       sodipodi:r2="17.98436"
       sodipodi:arg1="0.51507282"
       sodipodi:arg2="1.5622704"
       inkscape:flatsided="true"
       inkscape:rounded="1"
       inkscape:randomized="0"
       d="m -77.256595,-131.13916 c -30.688695,54.216692 -30.688695,54.216692 -62.297375,0.53116 -31.60869,-53.68554 -31.60869,-53.68554 30.68869,-54.21669 62.297378,-0.53116 62.297378,-0.53116 31.608685,53.68553 z"
       inkscape:transform-center-x="0.15331697"
       inkscape:transform-center-y="8.859055"
       transform="scale(-1)" />
  </g>
  <g
     inkscape:groupmode="layer"
     id="layer3"
     inkscape:label="Layer 3">
    <path
       sodipodi:type="star"
       style="fill:#000000;stroke-width:0.147668"
       id="path20-5-6"
       sodipodi:sides="3"
       sodipodi:cx="-108.02507"
       sodipodi:cy="-150.76696"
       sodipodi:r1="25.695028"
       sodipodi:r2="12.847516"
       sodipodi:arg1="0.51507282"
       sodipodi:arg2="1.5622704"
       inkscape:flatsided="true"
       inkscape:rounded="1"
       inkscape:randomized="0"
       d="m -85.663796,-138.10963 c -21.923134,38.730866 -21.923134,38.730866 -44.503474,0.37945 -22.58035,-38.35142 -22.58035,-38.35142 21.92313,-38.73087 44.503475,-0.37944 44.503475,-0.37944 22.580344,38.35142 z"
       inkscape:transform-center-x="0.10952439"
       inkscape:transform-center-y="6.3286543"
       transform="scale(-1)" />
  </g>
  <g
     inkscape:groupmode="layer"
     id="layer4"
     inkscape:label="Layer 4">
    <path
       sodipodi:type="star"
       style="fill:#ff0000;stroke-width:0.118904"
       id="path20-5-5"
       sodipodi:sides="3"
       sodipodi:cx="-108.27924"
       sodipodi:cy="-150.23263"
       sodipodi:r1="20.689899"
       sodipodi:r2="10.344951"
       sodipodi:arg1="0.51507282"
       sodipodi:arg2="1.5622704"
       inkscape:flatsided="true"
       inkscape:rounded="1"
       inkscape:randomized="0"
       d="m -90.273717,-140.04083 c -17.652733,31.18649 -17.652733,31.18649 -35.834653,0.30553 -18.18193,-30.88095 -18.18193,-30.88095 17.65273,-31.18648 35.834652,-0.30554 35.834652,-0.30554 18.181923,30.88095 z"
       inkscape:transform-center-x="0.08819325"
       inkscape:transform-center-y="5.0959003"
       transform="scale(-1)" />
  </g>
</svg>
