<?xml version="1.0" encoding="UTF-8" standalone="no"?>
<svg
   xmlns:dc="http://purl.org/dc/elements/1.1/"
   xmlns:cc="http://creativecommons.org/ns#"
   xmlns:rdf="http://www.w3.org/1999/02/22-rdf-syntax-ns#"
   xmlns:svg="http://www.w3.org/2000/svg"
   xmlns="http://www.w3.org/2000/svg"
   xmlns:sodipodi="http://sodipodi.sourceforge.net/DTD/sodipodi-0.dtd"
   xmlns:inkscape="http://www.inkscape.org/namespaces/inkscape"
   width="210mm"
   height="297mm"
   viewBox="0 0 210 297"
   version="1.1"
   id="svg8"
   inkscape:version="1.0.1 (c497b03c, 2020-09-10)"
   sodipodi:docname="light.svg">
  <defs
     id="defs2" />
  <sodipodi:namedview
     id="base"
     pagecolor="#ffffff"
     bordercolor="#666666"
     borderopacity="1.0"
     inkscape:pageopacity="0.0"
     inkscape:pageshadow="2"
     inkscape:zoom="0.96661131"
     inkscape:cx="102.89579"
     inkscape:cy="277.59373"
     inkscape:document-units="mm"
     inkscape:current-layer="layer1"
     inkscape:document-rotation="0"
     showgrid="false"
     showborder="false"
     inkscape:window-width="1252"
     inkscape:window-height="926"
     inkscape:window-x="0"
     inkscape:window-y="157"
     inkscape:window-maximized="0" />
  <metadata
     id="metadata5">
    <rdf:RDF>
      <cc:Work
         rdf:about="">
        <dc:format>image/svg+xml</dc:format>
        <dc:type
           rdf:resource="http://purl.org/dc/dcmitype/StillImage" />
        <dc:title></dc:title>
      </cc:Work>
    </rdf:RDF>
  </metadata>
  <g
     inkscape:label="Layer 1"
     inkscape:groupmode="layer"
     id="layer1">
    <path
       id="path864-7-4-8"
       style="fill:#ffff00;stroke-width:4.18794"
       d="M 198.5332 157.80664 A 240.49895 240.49895 0 0 0 -14.65625 396.75 L 28.412109 396.75 A 197.43105 197.43105 0 0 1 198.5332 201.2168 L 198.5332 157.80664 z "
       transform="scale(0.26458333)" />
    <rect
       style="fill:#1a1a1a;stroke-width:0.264583"
       id="rect841"
       width="0"
       height="0"
       x="48.359505"
       y="37.798233"
       rx="0"
       ry="0" />
    <path
       id="path864-7"
       style="fill:#ffff00;stroke-width:2.68803"
       d="M 198.56836 244.81641 A 154.36312 154.36312 0 0 0 71.480469 396.75 L 116.64844 396.75 A 109.19431 109.19431 0 0 1 198.56836 291.01953 L 198.56836 244.81641 z "
       transform="scale(0.26458333)" />
    <path
       id="path850"
       style="fill:#0000ff;stroke-width:0.330186"
       d="m 63.217453,37.520189 a 49.343511,33.768276 0 0 0 -3.463029,0.08372 v 67.369531 a 49.343511,33.768276 0 0 0 3.463029,0.0832 A 49.343511,33.768276 0 0 0 112.56103,71.288671 49.343511,33.768276 0 0 0 63.217453,37.520189 Z" />
  </g>
</svg>
