<?xml version="1.0" encoding="UTF-8" standalone="no"?>
<svg
   xmlns:dc="http://purl.org/dc/elements/1.1/"
   xmlns:cc="http://creativecommons.org/ns#"
   xmlns:rdf="http://www.w3.org/1999/02/22-rdf-syntax-ns#"
   xmlns:svg="http://www.w3.org/2000/svg"
   xmlns="http://www.w3.org/2000/svg"
   xmlns:sodipodi="http://sodipodi.sourceforge.net/DTD/sodipodi-0.dtd"
   xmlns:inkscape="http://www.inkscape.org/namespaces/inkscape"
   version="1.1"
   id="Capa_1"
   x="0px"
   y="0px"
   width="553.857px"
   height="553.858px"
   viewBox="0 0 553.857 553.858"
   style="enable-background:new 0 0 553.857 553.858;"
   xml:space="preserve"
   sodipodi:docname="right-arrow.svg"
   inkscape:version="1.0.1 (3bc2e813f5, 2020-09-07)"><metadata
   id="metadata43"><rdf:RDF><cc:Work
       rdf:about=""><dc:format>image/svg+xml</dc:format><dc:type
         rdf:resource="http://purl.org/dc/dcmitype/StillImage" /></cc:Work></rdf:RDF></metadata><defs
   id="defs41" /><sodipodi:namedview
   pagecolor="#ffffff"
   bordercolor="#666666"
   borderopacity="1"
   objecttolerance="10"
   gridtolerance="10"
   guidetolerance="10"
   inkscape:pageopacity="0"
   inkscape:pageshadow="2"
   inkscape:window-width="1920"
   inkscape:window-height="1017"
   id="namedview39"
   showgrid="false"
   inkscape:zoom="1.5346895"
   inkscape:cx="276.9285"
   inkscape:cy="250.86508"
   inkscape:window-x="3832"
   inkscape:window-y="-8"
   inkscape:window-maximized="1"
   inkscape:current-layer="Capa_1" />
<g
   id="g6"
   transform="rotate(179.72667,276.929,276.9285)">
	<g
   id="g4">
		<path
   d="M 521.061,116.107 H 273.197 v -55.83 c 0,-18.237 -13.375,-28.082 -25.958,-28.082 -5.095,0 -12.714,1.512 -20.08,8.721 L 9.808,253.639 C 3.485,259.83 0,268.101 0,276.922 c 0,8.822 3.482,17.094 9.811,23.296 L 227.159,512.94 c 7.362,7.207 14.982,8.722 20.08,8.722 12.583,-0.004 25.955,-9.845 25.955,-28.082 v -52.553 h 247.863 c 18.084,0 32.801,-14.712 32.801,-32.797 V 148.904 c 0.001,-18.084 -14.713,-32.797 -32.797,-32.797 z m -13.1,279.02 H 227.297 v 53.725 L 51.635,276.925 227.297,105.002 v 57.005 h 280.664 z"
   id="path2" />
	</g>
</g>
<g
   id="g8">
</g>
<g
   id="g10">
</g>
<g
   id="g12">
</g>
<g
   id="g14">
</g>
<g
   id="g16">
</g>
<g
   id="g18">
</g>
<g
   id="g20">
</g>
<g
   id="g22">
</g>
<g
   id="g24">
</g>
<g
   id="g26">
</g>
<g
   id="g28">
</g>
<g
   id="g30">
</g>
<g
   id="g32">
</g>
<g
   id="g34">
</g>
<g
   id="g36">
</g>
<path
   style="fill:#00ff00;stroke-width:0.651598"
   d="m 327.75311,419.78863 v -28.17846 l -51.31331,0.0554 c -28.22232,0.0304 -91.3377,0.27228 -140.25639,0.53745 -48.918688,0.26516 -89.03415,0.41796 -89.145469,0.33954 -0.325869,-0.22955 -1.494552,-231.74717 -1.171472,-232.07025 0.307649,-0.30765 186.010001,-1.40549 245.982861,-1.45421 l 34.79457,-0.0283 -0.34684,-26.71016 -0.34684,-26.71015 9.86091,9.53966 c 5.4235,5.24681 44.97587,43.57826 87.89415,85.181 l 78.03324,75.64134 -4.40271,4.30637 c -15.71966,15.3757 -123.55296,121.91086 -144.33329,142.59576 l -25.24941,25.13345 z"
   id="path870" /></svg>
