<?xml version="1.0" encoding="UTF-8" standalone="no"?><!DOCTYPE svg PUBLIC "-//W3C//DTD SVG 1.1//EN" "http://www.w3.org/Graphics/SVG/1.1/DTD/svg11.dtd"><svg width="100%" height="100%" viewBox="0 0 1000 1000" version="1.1" xmlns="http://www.w3.org/2000/svg" xmlns:xlink="http://www.w3.org/1999/xlink" xml:space="preserve" xmlns:serif="http://www.serif.com/" style="fill-rule:evenodd;clip-rule:evenodd;stroke-linejoin:round;stroke-miterlimit:2;"><path id="Flat-Tire" serif:id="Flat Tire" d="M500,90c275.958,0 500,224.042 500,500c0,275.958 -50.042,320 -500,320c-440.383,0 -500,-44.042 -500,-320c0,-275.958 224.042,-500 500,-500Zm0,250c137.979,0 250,112.021 250,250c0,137.979 -112.021,250 -250,250c-137.979,0 -250,-112.021 -250,-250c0,-137.979 112.021,-250 250,-250Zm-203.253,334.19c22.328,53.907 65.156,96.735 119.063,119.063l33.279,-80.342c-32.598,-13.503 -58.497,-39.402 -72,-72l-80.342,33.279Zm287.443,119.063c53.907,-22.328 96.735,-65.156 119.063,-119.063l-80.342,-33.279c-13.503,32.598 -39.402,58.497 -72,72l33.279,80.342Zm-84.19,-283.253c44.153,0 80,35.847 80,80c0,44.153 -35.847,80 -80,80c-44.153,0 -80,-35.847 -80,-80c0,-44.153 35.847,-80 80,-80Zm-84.19,-123.253c-53.907,22.328 -96.735,65.156 -119.063,119.063l80.342,33.279c13.503,-32.598 39.402,-58.497 72,-72l-33.279,-80.342Zm287.443,119.063c-22.328,-53.907 -65.156,-96.735 -119.063,-119.063l-33.279,80.342c32.598,13.503 58.497,39.402 72,72l80.342,-33.279Z" style="fill:#f00;"/><g><path d="M385.656,193.678c-0.52,-4.759 1.008,-9.514 4.204,-13.078c3.196,-3.564 7.757,-5.6 12.544,-5.6c43.656,0 151.536,0 195.192,0c4.787,0 9.348,2.036 12.544,5.6c3.196,3.564 4.724,8.319 4.204,13.078c-9.142,83.66 -46.237,423.128 -54.51,498.834c-0.934,8.546 -8.152,15.018 -16.748,15.018c-22.317,0 -63.855,0 -86.172,0c-8.596,0 -15.814,-6.472 -16.748,-15.018c-8.273,-75.706 -45.368,-415.174 -54.51,-498.834Z" style="fill:#fff;"/><circle cx="500" cy="738.855" r="86.145" style="fill:#fff;"/></g><path id="Little" d="M500,684.036c30.256,0 54.819,24.564 54.819,54.819c0,30.256 -24.563,54.82 -54.819,54.82c-30.256,0 -54.819,-24.564 -54.819,-54.82c0,-30.255 24.563,-54.819 54.819,-54.819Zm-77.078,-463.383c-0.318,-3.683 0.924,-7.33 3.423,-10.054c2.499,-2.723 6.026,-4.274 9.722,-4.274c29.812,0 98.054,0 127.866,0c3.696,0 7.223,1.551 9.722,4.274c2.499,2.724 3.741,6.371 3.423,10.054c-5.928,68.77 -31.405,364.296 -36.882,427.828c-0.588,6.823 -6.297,12.061 -13.145,12.061c-14.712,0 -39.39,0 -54.102,0c-6.848,0 -12.557,-5.238 -13.145,-12.061c-5.477,-63.532 -30.954,-359.058 -36.882,-427.828Z" style="fill:#f00;"/></svg>